<?xml version="1.0" encoding="UTF-8" standalone="no"?>
<svg
   xmlns:dc="http://purl.org/dc/elements/1.1/"
   xmlns:cc="http://creativecommons.org/ns#"
   xmlns:rdf="http://www.w3.org/1999/02/22-rdf-syntax-ns#"
   xmlns:svg="http://www.w3.org/2000/svg"
   xmlns="http://www.w3.org/2000/svg"
   viewBox="0 0 1239.8465 1074.7621"
   height="1074.7621"
   width="1239.8464"
   xml:space="preserve"
   id="svg2"
   version="1.1"><metadata
     id="metadata8"><rdf:RDF><cc:Work
         rdf:about=""><dc:format>image/svg+xml</dc:format><dc:type
           rdf:resource="http://purl.org/dc/dcmitype/StillImage" /><dc:title></dc:title></cc:Work></rdf:RDF></metadata><defs
     id="defs6"><clipPath
       id="clipPath18"
       clipPathUnits="userSpaceOnUse"><path
         id="path16"
         d="M 0,1000 H 1000 V 0 H 0 Z" /></clipPath><clipPath
       clipPathUnits="userSpaceOnUse"
       id="clipPath52"><path
         d="M 0,1000 H 1000 V 0 H 0 Z"
         id="path50" /></clipPath></defs><g
     transform="matrix(1.3333333,0,0,-1.3333333,-37.462723,1209.9409)"
     id="g10"><g
       id="g12"><g
         clip-path="url(#clipPath18)"
         id="g14"><g
           transform="translate(28.3291,614.063)"
           id="g20"><path
             id="path22"
             style="fill:#e8f5f9;fill-opacity:1;fill-rule:nonzero;stroke:none"
             d="m 0,0 c 1.119,12.973 6.344,25.439 11.853,37.09 4.416,9.338 9.439,18.804 16.655,26.303 7.647,7.947 17.311,13.795 28.641,13.81 6.289,0.008 12.063,-1.649 17.968,-3.711 3.444,-1.202 8.135,-2.969 10.823,-3.042 -0.519,0.014 1.059,0.988 0.294,-0.083 0.392,0.549 0.869,1.715 0.861,3.705 0.005,-1.268 -0.81,2.852 -0.554,2.421 -0.741,2.021 -1.909,3.669 -3.264,5.385 -7.075,8.971 -17.173,15.031 -23.389,24.84 -7.083,11.176 -8.769,24.347 -3.391,36.619 4.84,11.046 13.825,19.321 23.04,26.735 7.88,6.34 15.383,12.041 18.542,22.017 2.988,9.44 4.538,19.326 11.335,27.107 8.482,9.71 21.493,12.75 33.865,10.314 11.717,-2.307 21.213,-8.652 31.873,-13.523 4.017,-1.836 8.637,-3.934 13.164,-3.399 3.956,0.467 5.68,2.271 7.695,5.438 4.515,7.095 5.034,17.277 6.084,25.876 1.572,12.883 4.551,26.327 13.78,36.028 8.716,9.161 20.941,13.645 33.488,13.457 28.598,-0.428 47.872,-21.293 64.499,-42.121 10.684,-13.383 -10.37,-29.328 -21.061,-15.937 -10.593,13.269 -23.623,30.838 -42.231,31.59 -7.078,0.286 -13.581,-1.698 -17.39,-7.736 -4.692,-7.436 -4.699,-17.603 -5.725,-26.046 -2.473,-20.365 -11.122,-41.781 -33.275,-46.501 -11.8,-2.515 -23.928,1.998 -34.288,7.347 -7.435,3.838 -15.527,9.503 -24.189,9.83 -7.126,0.27 -8.508,-5.175 -10.363,-11.82 -2.806,-10.057 -5.526,-19.375 -12.506,-27.476 -6.845,-7.944 -15.477,-13.705 -23.224,-20.647 -5.097,-4.568 -11.871,-11.842 -9.476,-19.204 2.775,-8.529 12.611,-14.613 18.625,-20.73 7.631,-7.764 13.933,-17.042 14.56,-28.248 C 113.887,65.522 110.176,54.744 101.562,48.74 91.432,41.68 79.834,43.801 68.981,47.57 65.036,48.941 60.921,50.889 56.826,50.634 54.039,50.461 51.632,48.958 48.7,46.172 42.298,40.087 38.034,30.685 34.291,22.469 29.545,12.053 24.767,0.607 26.404,-11.079 c 0.865,-6.167 5.066,-14.753 11.093,-16.491 6.888,-1.986 12.256,-7.519 11.1,-15.219 C 47.638,-49.18 40.5,-55.866 33.565,-53.866 9.67,-46.978 -2.063,-23.924 0,0" /></g><g
           transform="translate(175.7173,767.2339)"
           id="g24"><path
             id="path26"
             style="fill:#e8f5f9;fill-opacity:1;fill-rule:nonzero;stroke:none"
             d="M 0,0 C 19.916,28.046 60.395,27.1 82.161,2.145 86.858,-3.241 85.04,-12.389 79.613,-16.486 73.52,-21.087 65.81,-19.191 61.1,-13.792 49.917,-0.971 30.166,-3.38 20.841,-16.512 10.947,-30.445 18.416,-48.603 33.512,-54.657 49.315,-60.994 38.992,-85.419 23.082,-79.039 -8.308,-66.451 -19.432,-27.366 0,0" /></g><g
           transform="translate(132.0957,638.9331)"
           id="g28"><path
             id="path30"
             style="fill:#e8f5f9;fill-opacity:1;fill-rule:nonzero;stroke:none"
             d="M 0,0 C 10.717,34.242 52.577,50.483 83.501,32.068 89.658,28.402 93.489,21.699 90.425,14.54 87.876,8.588 79.261,4 73.072,7.686 53.624,19.268 31.049,10.966 24.276,-10.674 22.136,-17.511 13.007,-20.201 6.923,-17.528 -0.19,-14.403 -2.149,-6.865 0,0" /></g><g
           transform="translate(78.189,559.2671)"
           id="g32"><path
             id="path34"
             style="fill:#e8f5f9;fill-opacity:1;fill-rule:nonzero;stroke:none"
             d="m 0,0 c 7.149,16.932 21.952,28.709 37.552,37.489 34.798,19.584 73.631,33.665 111.629,45.602 79.789,25.066 163.549,37.526 247.193,35.95 20.845,-0.393 41.653,-1.523 62.407,-3.528 7.138,-0.689 12.116,-8.45 11.1,-15.219 -1.115,-7.43 -7.875,-11.769 -15.032,-11.077 C 376.412,96.792 296.956,91.637 220.019,74.66 181.997,66.271 144.648,54.703 108.424,40.438 90.435,33.354 72.434,25.829 55.231,16.979 43.123,10.75 29.767,2.328 24.276,-10.674 c -6.121,-14.495 0.425,-29.931 8.685,-42.098 10.72,-15.792 24.811,-28.796 38.295,-42.152 31.244,-30.946 62.487,-61.891 93.73,-92.836 l 186.599,-184.82 c 13.582,-13.451 26.816,-27.52 41.794,-39.452 12.411,-9.886 26.861,-18.749 43.165,-19.401 15.919,-0.638 30.39,7.576 42.609,16.945 15.183,11.642 28.502,25.691 42.19,38.999 61.84,60.125 123.861,120.072 185.507,180.396 14.503,14.191 28.988,28.704 42.925,43.739 -82.816,80.049 -165.63,160.097 -248.445,240.146 -41.503,40.116 -83.006,80.232 -124.509,120.349 -17.054,16.485 -34.018,36.201 -55.125,47.643 -8.954,4.854 -18.676,8.106 -28.962,6.934 -10.505,-1.197 -19.664,-6.88 -27.704,-13.443 -19.578,-15.981 -35.811,-38.077 -48.156,-59.983 -13.344,-23.678 -23.076,-49.24 -28.482,-75.878 -1.42,-6.994 -7.697,-12.241 -15.032,-11.078 -6.818,1.081 -12.529,8.179 -11.1,15.219 10.219,50.353 33.811,98.038 68.825,135.788 17.143,18.482 38.698,36.276 65.293,36.165 25.998,-0.109 48.125,-15.017 66.772,-31.842 21.612,-19.501 42.077,-40.395 63.006,-60.625 21.767,-21.04 43.534,-42.08 65.302,-63.121 43.535,-42.08 87.069,-84.16 130.603,-126.24 48.424,-46.806 96.848,-93.612 145.272,-140.418 31.403,36.488 58.461,76.382 74.115,122.424 10.904,32.072 14.772,66.113 9.749,99.668 -4.441,29.651 -15.627,58.789 -31.796,84.016 -33.403,52.115 -86.719,88.777 -148.686,96.069 -59.987,7.06 -122.079,-12.385 -167.743,-51.471 -11.083,-9.486 -20.881,-20.203 -29.613,-31.91 -10.25,-13.744 -30.98,2.918 -20.84,16.511 40.155,53.837 104.389,87.468 170.906,93.744 67.98,6.415 135.444,-17.122 183.626,-65.751 48.52,-48.969 76.698,-116.91 72.291,-186.177 -5.204,-81.817 -53.648,-153.666 -107.665,-212.117 -29.471,-31.891 -61.179,-61.697 -92.301,-91.954 l -98.156,-95.435 c -16.359,-15.906 -32.719,-31.811 -49.078,-47.717 -14.055,-13.664 -27.814,-28.131 -44.159,-39.119 -16.609,-11.166 -35.154,-18.056 -55.37,-16.773 -18.993,1.206 -36.655,10.606 -51.611,21.824 -15.985,11.99 -29.789,26.721 -43.945,40.741 -16.338,16.183 -32.676,32.366 -49.015,48.548 -32.676,32.365 -65.353,64.73 -98.029,97.094 -32.676,32.365 -65.352,64.73 -98.029,97.094 -16.338,16.182 -32.676,32.365 -49.015,48.548 C 28.311,-89.363 14.196,-74.555 4.439,-56.193 -4.74,-38.917 -7.773,-18.409 0,0" /></g></g></g></g></svg>