<?xml version="1.0" encoding="UTF-8" standalone="no"?>
<svg
   xmlns:dc="http://purl.org/dc/elements/1.1/"
   xmlns:cc="http://creativecommons.org/ns#"
   xmlns:rdf="http://www.w3.org/1999/02/22-rdf-syntax-ns#"
   xmlns:svg="http://www.w3.org/2000/svg"
   xmlns="http://www.w3.org/2000/svg"
   id="svg89"
   version="1.1"
   viewBox="0 0 157.75148 63.304768"
   height="63.304768mm"
   width="157.75148mm">
  <defs
     id="defs83">
    <clipPath
       clipPathUnits="userSpaceOnUse"
       id="clipPath107">
      <path
         d="M 0,1000 H 1000 V 0 H 0 Z"
         id="path105" />
    </clipPath>
  </defs>
  <metadata
     id="metadata86">
    <rdf:RDF>
      <cc:Work
         rdf:about="">
        <dc:format>image/svg+xml</dc:format>
        <dc:type
           rdf:resource="http://purl.org/dc/dcmitype/StillImage" />
        <dc:title></dc:title>
      </cc:Work>
    </rdf:RDF>
  </metadata>
  <g
     transform="translate(-16.37426,-111.13333)"
     id="layer1">
    <g
       id="g99"
       transform="matrix(0.35277777,0,0,-0.35277777,-7.891629,358.47679)">
      <g
         id="g101">
        <g
           id="g103"
           clip-path="url(#clipPath107)">
          <g
             id="g109"
             transform="translate(69.5806,597.0229)">
            <path
               d="m 0,0 c 0,0.189 0.072,0.368 0.204,0.532 l 0.049,0.063 0.056,0.11 C 0.348,0.777 0.391,0.848 0.437,0.915 0.529,1.051 0.634,1.178 0.749,1.292 1.212,1.754 1.85,2.04 2.552,2.04 3.255,2.04 3.896,1.754 4.355,1.292 4.47,1.178 4.576,1.051 4.667,0.915 4.713,0.848 4.756,0.777 4.795,0.705 L 4.852,0.595 4.904,0.532 C 5.032,0.368 5.104,0.189 5.104,0 v -52.788 -5.997 c 0.02,-0.998 -0.056,-2.003 0.089,-2.993 0.151,-0.989 0.525,-1.94 1.08,-2.771 1.121,-1.659 2.979,-2.798 4.973,-3.005 1.997,-0.077 3.997,-0.022 5.998,-0.04 h 25.674 c 0.187,0 0.368,-0.07 0.532,-0.2 l 0.063,-0.051 0.112,-0.055 c 0.072,-0.04 0.141,-0.083 0.209,-0.129 0.135,-0.092 0.26,-0.197 0.378,-0.312 0.46,-0.461 0.746,-1.098 0.746,-1.801 0,-0.705 -0.286,-1.342 -0.746,-1.805 -0.118,-0.116 -0.243,-0.22 -0.378,-0.311 -0.068,-0.045 -0.137,-0.088 -0.209,-0.128 l -0.112,-0.057 -0.063,-0.051 c -0.164,-0.13 -0.345,-0.2 -0.532,-0.2 h -13.4 -1.676 c -0.554,-0.002 -1.11,-0.002 -1.737,0.014 l -3.652,0.073 -7.308,0.143 -3.652,0.072 -1.826,0.035 -0.914,0.017 -0.874,0.102 c -2.325,0.391 -4.525,1.799 -5.911,3.774 -0.687,0.99 -1.179,2.11 -1.426,3.263 -0.266,1.132 -0.181,2.378 -0.23,3.592 l -0.144,7.304 -0.145,7.306 C -0.01,-45.736 0.007,-44.685 0,-43.553 v 3.352 13.4 z"
               style="fill:#e8f5f9;fill-opacity:1;fill-rule:nonzero;stroke:none"
               id="path111" />
          </g>
          <g
             id="g113"
             transform="translate(413.0083,597.7915)">
            <path
               d="m 0,0 c 0.256,0 0.5,-0.071 0.719,-0.201 0.246,-0.13 0.562,-0.317 0.782,-0.547 0.46,-0.462 0.746,-1.1 0.746,-1.802 0,-0.705 -0.286,-1.342 -0.746,-1.804 C 1.281,-4.583 0.965,-4.771 0.719,-4.901 0.5,-5.028 0.256,-5.101 0,-5.101 h -17.854 -8.097 -4.046 c -0.673,-0.002 -1.353,0.012 -2.016,-0.123 -0.661,-0.138 -1.308,-0.345 -1.905,-0.665 -0.592,-0.322 -1.146,-0.715 -1.629,-1.188 -0.474,-0.479 -0.888,-1.018 -1.219,-1.608 -0.316,-0.595 -0.552,-1.233 -0.696,-1.891 -0.132,-0.663 -0.155,-1.34 -0.145,-2.015 v -8.096 -17.367 -17.366 -8.097 c -0.01,-0.673 0.013,-1.351 0.145,-2.014 0.144,-0.659 0.38,-1.296 0.696,-1.892 0.331,-0.59 0.745,-1.128 1.219,-1.606 0.483,-0.475 1.037,-0.867 1.631,-1.19 0.595,-0.32 1.242,-0.527 1.903,-0.664 0.663,-0.134 1.343,-0.122 2.016,-0.123 h 4.046 8.097 17.857 c 0.253,0 0.497,-0.071 0.716,-0.201 0.246,-0.13 0.565,-0.315 0.782,-0.547 0.463,-0.461 0.749,-1.099 0.749,-1.801 0,-0.705 -0.286,-1.342 -0.749,-1.805 -0.217,-0.23 -0.536,-0.417 -0.782,-0.547 -0.219,-0.13 -0.463,-0.2 -0.716,-0.2 h -9.045 -4.523 -2.263 l -2.463,0.047 -9.86,0.194 -4.933,0.097 c -0.834,0.001 -1.613,0.054 -2.388,0.256 -0.772,0.205 -1.534,0.486 -2.237,0.892 -0.703,0.407 -1.363,0.893 -1.947,1.465 -0.572,0.579 -1.081,1.223 -1.498,1.921 -0.398,0.706 -0.713,1.453 -0.927,2.225 -0.19,0.782 -0.298,1.544 -0.285,2.382 l -0.194,9.861 -0.099,4.932 -0.045,2.465 -0.004,2.271 v 9.045 9.046 l 0.004,2.271 0.045,2.465 0.099,4.931 0.194,9.862 c -0.013,0.837 0.095,1.6 0.285,2.381 0.214,0.772 0.526,1.519 0.927,2.227 0.417,0.696 0.926,1.34 1.498,1.92 0.584,0.573 1.244,1.057 1.947,1.465 0.703,0.405 1.465,0.686 2.237,0.891 0.775,0.202 1.554,0.255 2.388,0.257 l 4.933,0.096 9.86,0.194 2.463,0.048 h 2.263 4.523 z"
               style="fill:#e8f5f9;fill-opacity:1;fill-rule:nonzero;stroke:none"
               id="path115" />
          </g>
          <g
             id="g117"
             transform="translate(390.7236,557.3091)">
            <path
               d="M 0,0 C -0.037,0 -0.072,0.072 -0.102,0.202 -0.109,0.218 -0.105,0.235 -0.119,0.253 L -0.23,0.309 c -0.073,0.039 -0.142,0.082 -0.21,0.128 -0.135,0.092 -0.263,0.197 -0.378,0.312 -0.46,0.461 -0.749,1.1 -0.749,1.803 0,0.702 0.289,1.342 0.749,1.803 0.115,0.115 0.243,0.218 0.378,0.311 0.068,0.045 0.137,0.088 0.21,0.127 l 0.111,0.057 c 0.014,0.017 0.01,0.035 0.017,0.052 0.03,0.128 0.065,0.2 0.102,0.2 h 20.656 c 0.036,0 0.072,-0.072 0.101,-0.2 0.007,-0.017 0.004,-0.035 0.017,-0.052 L 20.885,4.793 C 20.958,4.754 21.027,4.711 21.096,4.666 21.23,4.573 21.358,4.47 21.474,4.355 21.937,3.894 22.222,3.254 22.222,2.552 22.222,1.849 21.937,1.21 21.474,0.749 21.358,0.634 21.23,0.529 21.096,0.437 21.027,0.391 20.958,0.348 20.885,0.309 L 20.774,0.253 C 20.761,0.235 20.764,0.218 20.757,0.202 20.728,0.072 20.692,0 20.656,0 Z"
               style="fill:#e8f5f9;fill-opacity:1;fill-rule:nonzero;stroke:none"
               id="path119" />
          </g>
          <g
             id="g121"
             transform="translate(501.9023,545.521)">
            <path
               d="M 0,0 C -0.022,0.03 0.014,0.102 0.099,0.204 0.108,0.22 0.125,0.227 0.132,0.25 0.125,0.286 0.122,0.325 0.115,0.368 0.105,0.447 0.103,0.525 0.103,0.604 0.099,0.766 0.112,0.923 0.139,1.084 0.257,1.724 0.568,2.325 1.127,2.762 1.679,3.192 2.375,3.367 3.022,3.251 3.183,3.222 3.344,3.179 3.502,3.117 3.58,3.087 3.659,3.055 3.735,3.015 L 3.847,2.956 c 0.026,-0.003 0.036,0.01 0.052,0.013 0.128,0.046 0.21,0.056 0.233,0.02 4.789,-6.609 7.738,-14.245 9.542,-21.96 0.006,-0.039 -0.053,-0.095 -0.171,-0.161 -0.014,-0.01 -0.029,-0.01 -0.046,-0.029 -0.007,-0.04 -0.017,-0.083 -0.026,-0.126 -0.024,-0.078 -0.05,-0.16 -0.079,-0.236 -0.056,-0.157 -0.128,-0.305 -0.213,-0.446 -0.346,-0.562 -0.904,-0.976 -1.59,-1.124 -0.691,-0.147 -1.376,-0.003 -1.932,0.335 -0.138,0.086 -0.265,0.181 -0.388,0.289 -0.058,0.056 -0.114,0.112 -0.17,0.171 l -0.079,0.092 c -0.02,0.01 -0.036,0.003 -0.052,0.007 -0.135,0.003 -0.214,0.023 -0.22,0.062 C 7.02,-12.898 4.273,-5.889 0,0"
               style="fill:#e8f5f9;fill-opacity:1;fill-rule:nonzero;stroke:none"
               id="path123" />
          </g>
          <g
             id="g125"
             transform="translate(484.0894,555.2856)">
            <path
               d="m 0,0 c -0.284,-0.006 -0.558,0.056 -0.81,0.177 -0.267,0.118 -0.581,0.296 -0.811,0.519 -0.476,0.447 -0.776,1.078 -0.791,1.781 -0.015,0.703 0.258,1.349 0.704,1.826 0.214,0.236 0.511,0.433 0.767,0.572 0.238,0.137 0.501,0.216 0.78,0.226 l 4.952,0.164 c 0.405,0.017 0.837,0.013 1.221,0.049 l 1.15,0.115 c 0.775,0.05 1.524,0.191 2.276,0.325 2.989,0.562 5.863,1.603 8.247,3.298 4.888,3.258 7.502,9.127 7.282,15.115 -0.016,0.404 -0.004,0.874 -0.046,1.219 l -0.129,1.018 c -0.019,0.331 -0.104,0.686 -0.183,1.041 -0.085,0.348 -0.142,0.709 -0.239,1.055 -0.241,0.669 -0.408,1.372 -0.737,2 -0.154,0.314 -0.265,0.656 -0.453,0.955 l -0.539,0.91 c -1.514,2.371 -3.809,4.207 -6.467,5.495 -2.693,1.248 -5.724,1.954 -8.831,2.279 -0.789,0.056 -1.551,0.148 -2.359,0.181 l -2.451,0.072 c -0.818,0.02 -1.635,0.063 -2.452,0.063 l -2.454,-0.017 c -0.819,0.003 -1.634,-0.02 -2.447,-0.056 L -6.04,40.34 -6.633,40.307 -6.928,40.287 -7.002,40.284 -7.038,40.28 c 0.243,0.027 0.044,0.007 0.09,0.011 l -0.156,-0.02 -0.607,-0.079 c -0.104,-0.033 -0.206,-0.059 -0.311,-0.079 -0.23,-0.072 -0.536,-0.155 -0.785,-0.279 -0.524,-0.23 -1.031,-0.536 -1.47,-0.926 -0.443,-0.388 -0.834,-0.835 -1.156,-1.327 -0.314,-0.497 -0.545,-1.032 -0.699,-1.581 -0.084,-0.271 -0.122,-0.551 -0.165,-0.83 -0.013,-0.299 -0.039,-0.496 -0.033,-0.976 V 31.688 11.637 -28.466 c 0,-0.283 -0.072,-0.549 -0.202,-0.795 -0.128,-0.263 -0.315,-0.568 -0.547,-0.788 -0.461,-0.463 -1.098,-0.749 -1.801,-0.749 -0.703,0 -1.342,0.286 -1.803,0.749 -0.232,0.22 -0.419,0.525 -0.548,0.788 -0.129,0.246 -0.201,0.512 -0.201,0.795 v 40.103 20.051 2.506 c -0.006,0.355 0.018,0.993 0.064,1.528 0.073,0.548 0.161,1.093 0.314,1.625 0.294,1.058 0.742,2.067 1.324,2.983 0.59,0.913 1.307,1.734 2.125,2.443 0.813,0.713 1.749,1.294 2.753,1.735 0.504,0.233 1.007,0.387 1.575,0.548 0.302,0.072 0.608,0.138 0.913,0.197 l 0.635,0.082 0.155,0.02 0.209,0.017 0.084,0.006 0.33,0.019 0.658,0.037 1.285,0.046 c 0.857,0.036 1.711,0.062 2.563,0.059 l 2.559,0.016 c 0.853,0.004 1.706,-0.042 2.56,-0.062 l 2.558,-0.079 c 0.859,-0.033 1.759,-0.135 2.64,-0.2 3.527,-0.371 7.1,-1.173 10.483,-2.743 3.344,-1.599 6.49,-4.069 8.579,-7.35 l 0.739,-1.248 c 0.25,-0.414 0.417,-0.868 0.624,-1.305 0.434,-0.866 0.68,-1.793 0.986,-2.699 0.132,-0.456 0.214,-0.927 0.318,-1.39 0.103,-0.463 0.21,-0.919 0.253,-1.421 l 0.164,-1.472 c 0.046,-0.486 0.03,-0.854 0.05,-1.288 C 30.133,22.423 29.93,20.6 29.615,18.757 29.208,16.935 28.702,15.112 27.857,13.414 27.088,11.683 25.999,10.103 24.799,8.638 24.149,7.945 23.542,7.209 22.806,6.612 22.448,6.303 22.103,5.978 21.735,5.686 L 20.588,4.858 C 17.504,2.68 13.938,1.409 10.377,0.742 9.484,0.578 8.591,0.417 7.694,0.354 L 6.348,0.227 C 5.901,0.184 5.497,0.19 5.07,0.171 Z"
               style="fill:#e8f5f9;fill-opacity:1;fill-rule:nonzero;stroke:none"
               id="path127" />
          </g>
          <g
             id="g129"
             transform="translate(264.3579,596.2246)">
            <path
               d="M 0,0 C -0.074,0.26 -0.076,0.526 -0.015,0.785 0.039,1.067 0.133,1.419 0.295,1.692 0.612,2.263 1.148,2.713 1.823,2.907 2.499,3.101 3.19,2.999 3.762,2.684 4.044,2.536 4.309,2.286 4.502,2.079 4.691,1.889 4.831,1.659 4.905,1.399 L 25.421,-70.284 46.104,1.419 c 0.075,0.26 0.214,0.489 0.403,0.677 0.196,0.21 0.462,0.456 0.744,0.604 0.572,0.315 1.263,0.414 1.938,0.22 0.677,-0.193 1.21,-0.644 1.528,-1.218 0.16,-0.273 0.254,-0.625 0.307,-0.907 0.06,-0.259 0.057,-0.529 -0.017,-0.788 l -10.632,-36.914 -5.313,-18.455 -2.658,-9.23 -0.665,-2.305 c -0.233,-0.809 -0.509,-1.682 -0.863,-2.536 -0.362,-0.864 -0.766,-1.741 -1.441,-2.66 -0.332,-0.454 -0.757,-0.94 -1.363,-1.396 -0.594,-0.447 -1.498,-0.894 -2.57,-0.917 -1.081,-0.029 -2.023,0.407 -2.639,0.851 -0.639,0.457 -1.058,0.936 -1.403,1.396 -0.696,0.926 -1.097,1.8 -1.464,2.667 -0.355,0.857 -0.633,1.724 -0.868,2.545 l -0.66,2.309 -2.637,9.233 -5.276,18.468 z"
               style="fill:#e8f5f9;fill-opacity:1;fill-rule:nonzero;stroke:none"
               id="path131" />
          </g>
          <g
             id="g133"
             transform="translate(419.8228,699.2964)">
            <path
               d="m 0,0 c 0.256,0 0.5,-0.071 0.72,-0.201 0.246,-0.13 0.561,-0.317 0.781,-0.547 0.46,-0.462 0.746,-1.1 0.746,-1.803 0,-0.704 -0.286,-1.341 -0.746,-1.803 C 1.281,-4.583 0.966,-4.771 0.72,-4.901 0.5,-5.029 0.256,-5.101 0,-5.101 h -17.854 -8.096 -4.047 c -0.673,-0.002 -1.353,0.012 -2.016,-0.123 -0.66,-0.138 -1.307,-0.345 -1.905,-0.665 -0.591,-0.322 -1.146,-0.715 -1.629,-1.188 -0.473,-0.479 -0.887,-1.018 -1.219,-1.608 -0.315,-0.595 -0.552,-1.233 -0.696,-1.891 -0.131,-0.664 -0.154,-1.341 -0.144,-2.015 v -8.096 -17.367 -17.366 -8.097 c -0.01,-0.673 0.013,-1.351 0.144,-2.015 0.144,-0.658 0.381,-1.296 0.696,-1.891 0.332,-0.59 0.746,-1.128 1.219,-1.606 0.483,-0.475 1.038,-0.867 1.632,-1.19 0.595,-0.32 1.242,-0.527 1.902,-0.665 0.663,-0.133 1.343,-0.121 2.016,-0.123 h 4.047 8.096 17.857 c 0.253,0 0.497,-0.07 0.717,-0.2 0.246,-0.13 0.565,-0.315 0.781,-0.547 0.463,-0.461 0.749,-1.099 0.749,-1.801 0,-0.705 -0.286,-1.342 -0.749,-1.805 -0.216,-0.23 -0.535,-0.417 -0.781,-0.547 -0.22,-0.13 -0.464,-0.2 -0.717,-0.2 h -9.045 -4.522 -2.263 l -2.464,0.047 -9.86,0.194 -4.933,0.097 c -0.834,0.001 -1.613,0.054 -2.388,0.256 -0.772,0.205 -1.533,0.486 -2.236,0.892 -0.704,0.407 -1.364,0.893 -1.948,1.465 -0.572,0.579 -1.081,1.223 -1.498,1.921 -0.397,0.706 -0.713,1.453 -0.926,2.225 -0.191,0.782 -0.299,1.544 -0.286,2.381 l -0.194,9.862 -0.098,4.932 -0.046,2.464 -0.004,2.272 v 9.045 9.046 l 0.004,2.271 0.046,2.465 0.098,4.931 0.194,9.862 c -0.013,0.837 0.095,1.599 0.286,2.381 0.213,0.772 0.526,1.519 0.926,2.227 0.417,0.696 0.926,1.34 1.498,1.919 0.584,0.574 1.244,1.058 1.948,1.466 0.703,0.405 1.464,0.686 2.236,0.891 0.775,0.202 1.554,0.255 2.388,0.257 l 4.933,0.096 9.86,0.194 2.464,0.048 h 2.263 4.522 z"
               style="fill:#e8f5f9;fill-opacity:1;fill-rule:nonzero;stroke:none"
               id="path135" />
          </g>
          <g
             id="g137"
             transform="translate(394.1748,658.814)">
            <path
               d="M 0,0 C -0.036,0 -0.072,0.072 -0.102,0.202 -0.108,0.218 -0.105,0.234 -0.118,0.253 L -0.23,0.309 c -0.072,0.039 -0.141,0.082 -0.21,0.128 -0.135,0.091 -0.263,0.196 -0.378,0.312 -0.459,0.461 -0.749,1.1 -0.749,1.803 0,0.702 0.29,1.342 0.749,1.803 0.115,0.115 0.243,0.218 0.378,0.311 0.069,0.045 0.138,0.088 0.21,0.127 l 0.112,0.056 c 0.013,0.018 0.01,0.036 0.016,0.053 0.03,0.128 0.066,0.2 0.102,0.2 h 20.656 c 0.036,0 0.072,-0.072 0.102,-0.2 0.006,-0.017 0.003,-0.035 0.016,-0.053 L 20.886,4.793 C 20.958,4.754 21.027,4.711 21.096,4.666 21.231,4.573 21.358,4.47 21.474,4.355 21.937,3.894 22.223,3.254 22.223,2.552 22.223,1.849 21.937,1.21 21.474,0.749 21.358,0.633 21.231,0.528 21.096,0.437 21.027,0.391 20.958,0.348 20.886,0.309 L 20.774,0.253 C 20.761,0.234 20.764,0.218 20.758,0.202 20.728,0.072 20.692,0 20.656,0 Z"
               style="fill:#e8f5f9;fill-opacity:1;fill-rule:nonzero;stroke:none"
               id="path139" />
          </g>
          <g
             id="g141"
             transform="translate(502.2812,643.6626)">
            <path
               d="M 0,0 C -0.023,0.029 0.013,0.102 0.098,0.204 0.108,0.22 0.124,0.227 0.131,0.25 0.124,0.286 0.121,0.325 0.114,0.368 0.104,0.446 0.102,0.525 0.102,0.604 0.098,0.765 0.111,0.923 0.138,1.084 0.256,1.724 0.567,2.325 1.126,2.762 1.678,3.192 2.374,3.367 3.021,3.251 3.183,3.222 3.343,3.179 3.501,3.117 3.579,3.087 3.658,3.054 3.734,3.015 L 3.846,2.956 c 0.026,-0.003 0.036,0.01 0.052,0.013 0.128,0.046 0.21,0.056 0.234,0.02 4.788,-6.609 7.737,-14.245 9.541,-21.96 0.007,-0.039 -0.053,-0.095 -0.171,-0.161 -0.014,-0.01 -0.029,-0.01 -0.046,-0.03 -0.007,-0.039 -0.017,-0.082 -0.026,-0.125 -0.024,-0.078 -0.049,-0.16 -0.079,-0.236 -0.056,-0.157 -0.128,-0.305 -0.213,-0.447 -0.346,-0.561 -0.904,-0.975 -1.59,-1.123 -0.69,-0.148 -1.376,-0.003 -1.932,0.335 -0.137,0.086 -0.265,0.181 -0.387,0.289 -0.059,0.056 -0.115,0.112 -0.171,0.171 l -0.079,0.092 c -0.019,0.01 -0.036,0.003 -0.052,0.007 -0.135,0.003 -0.214,0.023 -0.22,0.062 C 7.019,-12.898 4.272,-5.889 0,0"
               style="fill:#e8f5f9;fill-opacity:1;fill-rule:nonzero;stroke:none"
               id="path143" />
          </g>
          <g
             id="g145"
             transform="translate(484.4678,653.4272)">
            <path
               d="m 0,0 c -0.284,-0.007 -0.559,0.056 -0.81,0.177 -0.268,0.118 -0.581,0.296 -0.811,0.519 -0.476,0.447 -0.777,1.077 -0.792,1.781 -0.014,0.702 0.258,1.349 0.705,1.825 0.213,0.237 0.511,0.434 0.767,0.572 0.238,0.138 0.501,0.217 0.78,0.227 L 4.79,5.265 c 0.406,0.016 0.838,0.013 1.222,0.049 l 1.15,0.115 c 0.775,0.049 1.524,0.191 2.276,0.325 2.989,0.562 5.862,1.603 8.247,3.298 4.887,3.258 7.502,9.127 7.282,15.115 -0.017,0.404 -0.004,0.874 -0.046,1.218 l -0.128,1.018 c -0.021,0.332 -0.106,0.687 -0.185,1.042 -0.085,0.348 -0.14,0.709 -0.239,1.054 -0.24,0.67 -0.407,1.373 -0.736,2.001 -0.154,0.314 -0.266,0.656 -0.453,0.955 l -0.538,0.91 c -1.515,2.371 -3.811,4.207 -6.468,5.495 -2.693,1.248 -5.725,1.954 -8.832,2.279 -0.788,0.056 -1.55,0.148 -2.358,0.181 l -2.452,0.072 c -0.818,0.02 -1.634,0.063 -2.452,0.063 l -2.453,-0.017 c -0.82,0.003 -1.634,-0.02 -2.447,-0.056 l -1.221,-0.043 -0.592,-0.032 -0.296,-0.02 -0.073,-0.003 -0.037,-0.004 c 0.243,0.027 0.044,0.007 0.091,0.01 l -0.156,-0.019 -0.608,-0.079 c -0.103,-0.033 -0.205,-0.059 -0.31,-0.079 -0.23,-0.072 -0.536,-0.155 -0.786,-0.28 -0.523,-0.229 -1.031,-0.535 -1.469,-0.925 -0.444,-0.388 -0.834,-0.835 -1.156,-1.327 -0.314,-0.497 -0.546,-1.032 -0.7,-1.581 -0.084,-0.272 -0.121,-0.551 -0.164,-0.83 -0.013,-0.299 -0.039,-0.496 -0.033,-0.976 V 31.688 11.637 -28.466 c 0,-0.283 -0.072,-0.549 -0.202,-0.795 -0.128,-0.263 -0.315,-0.569 -0.547,-0.788 -0.462,-0.464 -1.099,-0.749 -1.801,-0.749 -0.703,0 -1.342,0.285 -1.804,0.749 -0.231,0.219 -0.419,0.525 -0.548,0.788 -0.128,0.246 -0.2,0.512 -0.2,0.795 v 40.103 20.051 2.506 c -0.007,0.355 0.017,0.993 0.064,1.528 0.072,0.548 0.16,1.093 0.313,1.625 0.294,1.058 0.743,2.066 1.324,2.983 0.591,0.913 1.307,1.734 2.125,2.443 0.813,0.713 1.749,1.294 2.754,1.734 0.504,0.234 1.007,0.388 1.575,0.549 0.302,0.072 0.608,0.138 0.913,0.197 l 0.634,0.082 0.156,0.02 0.208,0.016 0.084,0.007 0.33,0.019 0.659,0.037 1.284,0.045 c 0.857,0.037 1.711,0.063 2.564,0.06 l 2.558,0.016 c 0.854,0.004 1.706,-0.042 2.56,-0.062 l 2.559,-0.079 c 0.859,-0.033 1.759,-0.135 2.639,-0.2 3.527,-0.372 7.101,-1.173 10.483,-2.743 3.344,-1.599 6.491,-4.069 8.58,-7.35 l 0.739,-1.248 c 0.25,-0.415 0.417,-0.868 0.624,-1.305 0.433,-0.867 0.68,-1.793 0.985,-2.699 0.132,-0.457 0.214,-0.927 0.319,-1.39 0.102,-0.463 0.211,-0.919 0.253,-1.422 l 0.164,-1.471 C 30.064,25.1 30.048,24.732 30.067,24.298 30.133,22.423 29.93,20.6 29.614,18.757 29.207,16.935 28.701,15.112 27.856,13.414 27.088,11.683 25.998,10.103 24.799,8.638 24.148,7.945 23.541,7.209 22.806,6.612 22.447,6.303 22.103,5.978 21.734,5.686 L 20.589,4.858 C 17.504,2.68 13.938,1.409 10.377,0.742 9.484,0.578 8.59,0.417 7.694,0.354 L 6.347,0.227 C 5.9,0.184 5.497,0.19 5.069,0.17 Z"
               style="fill:#e8f5f9;fill-opacity:1;fill-rule:nonzero;stroke:none"
               id="path147" />
          </g>
          <g
             id="g149"
             transform="translate(186.6416,623.9238)">
            <path
               d="m 0,0 c -0.083,-0.263 -0.233,-0.491 -0.43,-0.68 -0.202,-0.207 -0.475,-0.442 -0.762,-0.581 -0.581,-0.298 -1.278,-0.375 -1.946,-0.158 -0.67,0.215 -1.189,0.683 -1.487,1.265 -0.15,0.28 -0.234,0.632 -0.277,0.918 -0.049,0.267 -0.037,0.54 0.048,0.803 l 12.059,37.364 6.028,18.683 3.016,9.341 0.377,1.168 c 0.14,0.412 0.277,0.847 0.443,1.273 0.322,0.854 0.69,1.711 1.166,2.573 0.483,0.859 1.058,1.736 1.933,2.58 0.456,0.417 0.964,0.834 1.662,1.159 0.682,0.324 1.536,0.534 2.396,0.489 0.857,-0.039 1.672,-0.311 2.288,-0.67 0.619,-0.356 1.128,-0.773 1.535,-1.194 0.829,-0.849 1.365,-1.714 1.836,-2.571 0.928,-1.692 1.473,-3.488 1.968,-4.973 L 34.938,57.471 41.112,38.835 53.458,1.563 C 53.545,1.302 53.56,1.03 53.514,0.762 53.473,0.475 53.392,0.123 53.241,-0.158 c -0.292,-0.584 -0.808,-1.056 -1.475,-1.278 -0.668,-0.221 -1.363,-0.149 -1.948,0.144 -0.288,0.137 -0.563,0.371 -0.766,0.576 -0.199,0.187 -0.35,0.414 -0.435,0.677 l -12.348,37.27 -6.173,18.636 -3.086,9.318 c -0.531,1.616 -0.961,2.964 -1.611,4.149 -0.311,0.575 -0.666,1.104 -0.987,1.423 -0.16,0.171 -0.301,0.261 -0.386,0.317 -0.018,0.005 -0.035,0.014 -0.049,0.028 -0.01,-0.002 -0.015,-0.002 -0.02,0.005 -0.013,-0.019 0.021,0.062 0.026,0.118 l 0.014,0.092 c 0,0.043 -0.002,0.006 0.001,-0.015 l 0.02,-0.116 c 0.004,-0.028 0.014,-0.061 0.021,-0.078 0.002,0.007 -0.003,-0.004 -0.005,-0.004 -0.006,-0.01 -0.008,0.009 -0.026,-0.01 -0.051,-0.012 -0.188,-0.119 -0.334,-0.252 -0.303,-0.291 -0.665,-0.778 -0.977,-1.346 -0.315,-0.572 -0.599,-1.221 -0.852,-1.895 -0.133,-0.339 -0.24,-0.684 -0.365,-1.045 l -0.377,-1.167 -3.014,-9.342 -6.03,-18.683 z"
               style="fill:#e8f5f9;fill-opacity:1;fill-rule:nonzero;stroke:none"
               id="path151" />
          </g>
          <g
             id="g153"
             transform="translate(206.5947,649.7295)">
            <path
               d="m 0,0 c -0.016,0 -0.031,0.072 -0.044,0.201 -0.005,0.016 0.001,0.034 -0.012,0.052 -0.034,0.018 -0.07,0.037 -0.11,0.056 -0.072,0.04 -0.141,0.082 -0.21,0.128 -0.135,0.092 -0.261,0.197 -0.378,0.312 -0.461,0.461 -0.747,1.1 -0.747,1.803 0,0.703 0.286,1.341 0.747,1.802 0.117,0.116 0.243,0.22 0.378,0.312 0.069,0.046 0.138,0.088 0.21,0.128 0.04,0.019 0.076,0.038 0.11,0.056 0.013,0.018 0.007,0.036 0.012,0.051 C -0.031,5.03 -0.016,5.103 0,5.103 H 9.039 C 9.055,5.103 9.07,5.03 9.083,4.901 9.088,4.886 9.08,4.868 9.095,4.85 9.131,4.832 9.167,4.813 9.205,4.794 9.277,4.754 9.348,4.712 9.415,4.666 9.551,4.574 9.678,4.47 9.793,4.354 10.254,3.893 10.542,3.255 10.542,2.552 10.542,1.849 10.254,1.21 9.793,0.749 9.678,0.634 9.551,0.529 9.415,0.437 9.348,0.391 9.277,0.349 9.205,0.309 9.167,0.29 9.131,0.271 9.095,0.253 9.08,0.235 9.088,0.217 9.083,0.201 9.07,0.072 9.055,0 9.039,0 Z"
               style="fill:#e8f5f9;fill-opacity:1;fill-rule:nonzero;stroke:none"
               id="path155" />
          </g>
          <g
             id="g157"
             transform="translate(278.3437,697.7295)">
            <path
               d="M 0,0 C -0.074,0.26 -0.076,0.525 -0.015,0.785 0.04,1.067 0.133,1.419 0.296,1.692 0.612,2.263 1.148,2.713 1.823,2.907 2.5,3.101 3.191,2.999 3.762,2.684 4.045,2.536 4.309,2.286 4.503,2.079 4.692,1.889 4.832,1.659 4.905,1.399 L 25.422,-70.284 46.104,1.419 c 0.075,0.26 0.215,0.489 0.404,0.677 0.195,0.21 0.461,0.456 0.744,0.604 0.571,0.315 1.263,0.414 1.937,0.22 0.677,-0.194 1.211,-0.644 1.528,-1.218 0.16,-0.273 0.254,-0.625 0.307,-0.907 0.06,-0.26 0.058,-0.529 -0.017,-0.788 l -10.631,-36.914 -5.314,-18.456 -2.658,-9.229 -0.665,-2.305 c -0.233,-0.809 -0.509,-1.682 -0.862,-2.536 -0.363,-0.864 -0.767,-1.741 -1.442,-2.66 -0.331,-0.454 -0.757,-0.94 -1.363,-1.397 -0.594,-0.446 -1.498,-0.893 -2.57,-0.916 -1.081,-0.03 -2.023,0.407 -2.639,0.851 -0.639,0.456 -1.057,0.936 -1.403,1.396 -0.696,0.926 -1.096,1.8 -1.464,2.667 -0.355,0.857 -0.633,1.724 -0.867,2.545 l -0.661,2.309 -2.637,9.233 -5.276,18.468 z"
               style="fill:#e8f5f9;fill-opacity:1;fill-rule:nonzero;stroke:none"
               id="path159" />
          </g>
          <g
             id="g161"
             transform="translate(105.7749,637.5649)">
            <path
               d="m 0,0 h -4.101 c -0.446,0 -0.811,0.365 -0.811,0.81 v 59.591 c 0,0.446 0.365,0.81 0.811,0.81 H 0 c 0.446,0 0.81,-0.364 0.81,-0.81 V 0.81 C 0.81,0.365 0.446,0 0,0"
               style="fill:#e8f5f9;fill-opacity:1;fill-rule:nonzero;stroke:none"
               id="path163" />
          </g>
          <g
             id="g165"
             transform="translate(68.7852,698.7764)">
            <path
               d="M 0,0 C 0.241,1.28 1.293,2.239 2.532,2.345 3.904,2.462 5.21,1.508 5.534,0.094 c 0.094,-22.043 0.188,-44.085 0.281,-66.127 0.248,-0.708 0.752,-1.839 1.783,-2.907 1.698,-1.762 3.733,-2.215 4.502,-2.346 h 46.241 c 0.705,0.119 2.518,0.52 4.127,2.064 1.324,1.27 1.855,2.684 2.064,3.377 0.062,21.979 0.125,43.959 0.188,65.939 0.451,1.194 1.564,2.008 2.813,2.063 1.347,0.06 2.604,-0.773 3.096,-2.063 v -65.939 c -0.053,-1.077 -0.344,-4.089 -2.627,-6.754 -3.602,-4.206 -9.033,-3.892 -9.661,-3.845 H 33.298 12.006 c -0.632,-0.079 -4.895,-0.54 -8.442,2.626 C 0.069,-70.698 0,-66.494 0,-65.845 Z"
               style="fill:#e8f5f9;fill-opacity:1;fill-rule:nonzero;stroke:none"
               id="path167" />
          </g>
          <g
             id="g169"
             transform="translate(195.8809,524.0488)">
            <path
               d="m 0,0 c -0.387,-0.154 -0.79,-0.21 -1.174,-0.158 -1.02,0.089 -1.854,0.759 -2.127,1.744 -0.267,0.963 0.035,1.968 0.644,2.608 0.23,0.236 0.506,0.44 0.829,0.572 0,0 0.656,0.223 1.828,0.778 1.168,0.561 2.861,1.458 4.81,2.926 0.498,0.355 0.977,0.785 1.503,1.209 0.496,0.46 1.038,0.916 1.548,1.452 1.053,1.034 2.116,2.243 3.129,3.629 2.036,2.759 3.928,6.218 5.216,10.287 1.289,4.057 1.983,8.707 1.758,13.617 -0.228,4.894 -1.371,10.031 -3.681,14.823 -2.293,4.782 -5.771,9.216 -10.25,12.399 -4.461,3.189 -9.937,4.992 -15.454,4.838 -5.514,-0.102 -10.912,-2.158 -15.236,-5.548 -4.34,-3.376 -7.683,-7.915 -9.8,-12.786 -2.167,-4.864 -3.128,-10.044 -3.208,-14.941 -0.078,-4.913 0.754,-9.541 2.173,-13.555 1.416,-4.02 3.409,-7.423 5.528,-10.116 2.133,-2.693 4.396,-4.667 6.381,-6.073 2.004,-1.393 3.725,-2.224 4.911,-2.743 0.602,-0.239 1.064,-0.42 1.374,-0.541 0.318,-0.105 0.482,-0.158 0.482,-0.158 0.331,-0.108 0.614,-0.302 0.848,-0.542 0.639,-0.597 0.981,-1.596 0.751,-2.581 -0.23,-0.986 -1.033,-1.679 -2.056,-1.83 -0.378,-0.052 -0.78,-0.01 -1.179,0.118 0,0 -0.195,0.066 -0.576,0.194 -0.373,0.145 -0.927,0.364 -1.648,0.647 -1.418,0.621 -3.473,1.616 -5.836,3.262 -2.345,1.655 -4.989,3.97 -7.454,7.081 -2.45,3.114 -4.728,7.012 -6.338,11.587 -1.614,4.566 -2.55,9.798 -2.461,15.326 0.088,5.514 1.172,11.373 3.64,16.924 2.418,5.548 6.243,10.79 11.347,14.764 1.276,0.989 2.639,1.879 4.054,2.693 1.435,0.782 2.92,1.494 4.469,2.063 3.094,1.133 6.396,1.793 9.713,1.856 0.83,0.046 1.658,-0.017 2.487,-0.033 0.825,-0.079 1.655,-0.122 2.473,-0.263 1.644,-0.217 3.258,-0.611 4.832,-1.107 C 1.401,73.43 4.342,71.906 6.986,70.047 12.268,66.29 16.258,61.159 18.879,55.701 21.517,50.229 22.804,44.409 23.061,38.894 23.314,33.373 22.535,28.115 21.068,23.5 19.605,18.879 17.444,14.911 15.092,11.729 13.921,10.129 12.69,8.727 11.463,7.515 10.865,6.894 10.234,6.355 9.651,5.823 9.037,5.324 8.473,4.821 7.888,4.401 5.592,2.67 3.577,1.603 2.184,0.933 1.478,0.614 0.944,0.354 0.565,0.223 0.192,0.075 0,0 0,0"
               style="fill:#e8f5f9;fill-opacity:1;fill-rule:nonzero;stroke:none"
               id="path171" />
          </g>
        </g>
      </g>
    </g>
  </g>
</svg>
