<svg xmlns="http://www.w3.org/2000/svg" width="89" height="63" viewBox="0 0 89 63">
    <path fill="#FFF" fill-rule="nonzero" d="M42.245.573l.073 3.67C50.503 4.28 57.77 9.53 60.926 17.64l.991 2.57 2.753-.22c.477-.038.954-.074 1.468-.074 4.845 0 9.432 2.055 12.883 5.725 3.486 3.744 5.395 8.699 5.395 14.02-.037 10.828-8.258 19.636-18.425 19.636l-42.391-.11h-3.597c-9.066-.11-16.37-8.074-16.333-17.8.037-9.396 6.9-17.14 15.599-17.654l2.753-.147.587-2.716c2.239-9.8 10.276-16.626 19.636-16.626V.574zm0 0c-11.268 0-20.7 8.295-23.196 19.453C8.479 20.65.037 29.936-.001 41.35c-.036 11.818 8.956 21.434 20.114 21.47h.073l45.805.148h.074c12.148 0 21.984-10.424 22.021-23.306.037-12.92-9.8-23.417-21.948-23.453H66.1c-.587 0-1.174.036-1.762.073C60.78 7.07 52.301.573 42.318.537c0 .036-.037.036-.073.036z"/>
</svg>
