<svg xmlns="http://www.w3.org/2000/svg" width="24" height="16" viewBox="0 0 24 16">
    <g fill="#0120E3" fill-rule="nonzero">
        <path d="M17.678 4c-.167 0-.324.01-.481.028C16.244 1.666 13.956 0 11.294 0 8.27 0 5.745 2.146 5.087 5.016 2.25 5.186 0 7.567 0 10.494c0 3.04 2.416 5.497 5.402 5.497h3.437v-.942H5.372c-2.426-.018-4.39-2.051-4.39-4.555 0-2.41 1.827-4.405 4.164-4.546l.737-.047.157-.696C6.62 2.7 8.78.94 11.294.94c2.19 0 4.145 1.346 4.99 3.426l.264.659.737-.057c.128-.009.265-.018.393-.018 2.71 0 4.91 2.268 4.91 5.054 0 2.786-2.2 5.054-4.91 5.054h-3.929V16h3.929c3.25 0 5.892-2.682 5.892-5.995S20.928 4 17.678 4z"/>
        <path d="M11.294 13.75l.688-1.044h-1.375l.687 1.045zm0 1.78L8.84 11.764h4.91l-2.455 3.764z"/>
        <path d="M10.803 9h1v3.765h-1z"/>
    </g>
</svg>
