<svg xmlns="http://www.w3.org/2000/svg" width="64" height="64" viewBox="0 0 64 64">
    <g fill="#FFF" fill-rule="nonzero">
        <path d="M11.33 44.391l3.05 3.196 2.033-2.179-3.05-3.05-2.034 2.033zm5.112 5.134l2.058-2.051 3.077 3.085-2.059 2.05-3.076-3.084zM49.384 5.9c-4.793 0-8.714 3.921-8.714 8.715 0 4.793 3.921 8.714 8.714 8.714 4.794 0 8.715-3.921 8.715-8.714 0-4.794-3.921-8.715-8.715-8.715zm0 14.525c-3.195 0-5.81-2.615-5.81-5.81 0-3.196 2.615-5.81 5.81-5.81 3.196 0 5.81 2.614 5.81 5.81 0 3.195-2.614 5.81-5.81 5.81z"/>
        <path d="M59.697 4.303c-5.81-5.665-14.96-5.665-20.625 0L9.296 34.224l2.033 2.034L0 47.587 16.413 64l11.33-11.33 2.033 2.034 29.776-29.776c5.81-5.664 5.81-14.96.145-20.625zM25.709 50.637l-9.296 9.296L4.067 47.587l9.296-9.296 4.648 4.648 7.698 7.698zm31.81-27.742L29.775 50.637 13.363 34.224 41.105 6.336c4.503-4.502 11.91-4.502 16.413 0 4.648 4.648 4.648 11.91 0 16.559z"/>
    </g>
</svg>
