<svg xmlns="http://www.w3.org/2000/svg" width="70" height="64" viewBox="0 0 70 64">
    <g fill="#7B939B" fill-rule="nonzero">
        <circle cx="34.909" cy="32" r="2.909"/>
        <path d="M56.122 11.642l8.064-8.063 2.057 2.057-8.064 8.063z"/>
        <path d="M59.041 2.556L61.098.499l8.228 8.228-2.057 2.057zM3.586 5.63l2.058-2.056 8.058 8.07-2.058 2.055z"/>
        <path d="M.51 8.724L8.738.496l2.057 2.057-8.228 8.228zM33.455 17.455h2.909V32h-2.909z"/>
        <path d="M34.201 33.325l2.057-2.057 10.285 10.285-2.057 2.057z"/>
        <path d="M34.91 2.91C50.937 2.91 64 15.97 64 32S50.938 61.09 34.91 61.09C18.88 61.09 5.817 48.03 5.817 32S18.88 2.91 34.91 2.91zm0-2.91c-17.688 0-32 14.313-32 32 0 17.687 14.312 32 32 32 17.686 0 32-14.313 32-32 0-17.687-14.314-32-32-32z"/>
    </g>
</svg>
