<svg xmlns="http://www.w3.org/2000/svg" width="70" height="64" viewBox="0 0 70 64">
    <g fill="#7B939B" fill-rule="nonzero">
        <path d="M38.167 2.91c.611 0 1.222.174 1.891.494.786 1.25 2.531 4.334 3.491 8.203.204.786.233 1.6.087 2.415l-1.978 11.142c-.174.96.087 1.949.727 2.705a3.333 3.333 0 0 0 2.531 1.193h19.84c.99 0 1.862.64 2.066 1.513.058.29.087.64.087.989 0 1.192-.407 1.92-1.367 2.414a3.58 3.58 0 0 0-1.95 2.677 3.618 3.618 0 0 0 1.077 3.141c.64.611.64 1.193.64 1.397 0 .756-.698 1.57-1.367 2.065a3.352 3.352 0 0 0-1.31 2.357c-.087.93.233 1.861.844 2.56.175.203.495.64.495 1.425 0 .815-.844 1.775-1.426 2.124-1.658 1.076-2.152 3.316-1.105 5.003.204.32.553 1.018.553 2.124 0 1.105-1.484 2.269-2.88 2.269H24.785l-4.421-2.182V35.433l2.705-2.037c.291-.232.553-.465.815-.756 2.24-2.56 9.658-11.404 11.549-17.658.145-.466.203-.96.203-1.484V3.985c0-.087.088-.174.117-.203.785-.582 1.6-.873 2.414-.873zm0-2.91c-1.774 0-3.2.756-4.13 1.425-.815.611-1.31 1.542-1.31 2.531v9.542c0 .204-.029.437-.087.64-1.775 5.906-9.716 15.157-10.967 16.582-.117.116-.233.233-.35.32l-2.938 2.21a2.287 2.287 0 0 0-.93 1.834v24.232a2.27 2.27 0 0 0 1.309 2.066l4.858 2.356c.32.175.698.233 1.047.233h34.444c2.822 0 5.789-2.298 5.789-5.178 0-1.775-.553-2.997-.99-3.666-.203-.349-.145-.785.204-1.018 1.164-.756 2.735-2.502 2.735-4.567 0-1.717-.756-2.851-1.222-3.375-.174-.203-.145-.523.058-.669.815-.64 2.502-2.21 2.502-4.393 0-1.687-.844-2.85-1.542-3.52a.675.675 0 0 1 .175-1.105c1.193-.61 2.967-2.007 2.967-5.004 0-.61-.058-1.134-.174-1.629-.495-2.24-2.56-3.782-4.888-3.782h-19.84a.412.412 0 0 1-.407-.465l1.978-11.142a8.877 8.877 0 0 0-.116-3.607C45.236 6.37 43.2 2.88 42.385 1.658a2.435 2.435 0 0 0-.901-.814C40.32.233 39.185 0 38.167 0z"/>
        <path d="M17.455 32.698v28.393H2.909V32.698h14.546zm0-2.909H2.909C1.31 29.79 0 31.1 0 32.7V61.09C0 62.69 1.31 64 2.91 64h14.545c1.6 0 2.909-1.31 2.909-2.91V32.699c0-1.6-1.31-2.909-2.91-2.909z"/>
    </g>
</svg>
