<svg xmlns="http://www.w3.org/2000/svg" width="64" height="64" viewBox="0 0 64 64">
    <g fill="#7B939B" fill-rule="nonzero">
        <path d="M32.187 13.333c2.826 0 5.146 2.32 5.146 5.147v2.853H26.667V18.48c0-2.827 2.32-5.147 5.146-5.147h.374zm0-2.666h-.347c-4.347 0-7.84 3.493-7.84 7.813V24h16v-5.52a7.807 7.807 0 0 0-7.813-7.813z"/>
        <path d="M40 24v16H24V24h16zm.107-2.667H23.893a2.56 2.56 0 0 0-2.56 2.56v16.24a2.56 2.56 0 0 0 2.56 2.56h16.214a2.56 2.56 0 0 0 2.56-2.56v-16.24a2.56 2.56 0 0 0-2.56-2.56z"/>
        <path d="M32 34.667a1.32 1.32 0 0 1-1.333-1.334v-2.666A1.32 1.32 0 0 1 32 29.333a1.32 1.32 0 0 1 1.333 1.334v2.666A1.32 1.32 0 0 1 32 34.667z"/>
        <path d="M61.333 2.667V8c0 8.347-1.733 20.773-4.613 27.147C52.747 43.893 45.28 55.413 32 61.12 18.72 55.413 11.227 43.893 7.28 35.147 4.4 28.773 2.667 16.32 2.667 8V2.667h58.666zM64 0H0v8c0 7.893 1.6 21.04 4.853 28.24C9.307 46.08 17.493 58.187 32 64c14.507-5.813 22.693-17.92 27.147-27.76C62.4 29.04 64 15.893 64 8V0z"/>
    </g>
</svg>
