<svg xmlns="http://www.w3.org/2000/svg" width="64" height="64" viewBox="0 0 64 64">
    <g fill="#7B939B" fill-rule="nonzero">
        <path d="M16.384 21.729L37.71.402l1.886 1.886L18.27 23.614z"/>
        <path d="M40 10.667h-2.667v-8h-8V0H40zM0 61.333h64V64H0z"/>
        <path d="M58.667 18.667v42.666H48V18.667h10.667zm0-2.667H48a2.675 2.675 0 0 0-2.667 2.667v42.666C45.333 62.8 46.533 64 48 64h10.667c1.466 0 2.666-1.2 2.666-2.667V18.667c0-1.467-1.2-2.667-2.666-2.667zM37.333 32v29.333H26.667V32h10.666zm0-2.667H26.667A2.675 2.675 0 0 0 24 32v29.333C24 62.8 25.2 64 26.667 64h10.666C38.8 64 40 62.8 40 61.333V32c0-1.467-1.2-2.667-2.667-2.667zM16 45.333v16H5.333v-16H16zm0-2.666H5.333a2.675 2.675 0 0 0-2.666 2.666v16C2.667 62.8 3.867 64 5.333 64H16c1.467 0 2.667-1.2 2.667-2.667v-16c0-1.466-1.2-2.666-2.667-2.666z"/>
    </g>
</svg>
