<svg xmlns="http://www.w3.org/2000/svg" width="107" height="64" viewBox="0 0 107 64">
    <g fill="#FFF" fill-rule="evenodd">
        <path fill-rule="nonzero" d="M53 20c5.523 0 10-4.477 10-10S58.523 0 53 0 43 4.477 43 10s4.477 10 10 10zm0-4a6 6 0 1 1 0-12 6 6 0 0 1 0 12z"/>
        <path d="M51 19h4v27h-4z"/>
        <path d="M99 31v4H8v-4z"/>
        <path d="M8 31h4v14H8zM95 32h4v14h-4z"/>
        <path fill-rule="nonzero" d="M53 64c5.523 0 10-4.477 10-10s-4.477-10-10-10-10 4.477-10 10 4.477 10 10 10zm0-4a6 6 0 1 1 0-12 6 6 0 0 1 0 12zM10 64c5.523 0 10-4.477 10-10s-4.477-10-10-10S0 48.477 0 54s4.477 10 10 10zm0-4a6 6 0 1 1 0-12 6 6 0 0 1 0 12zM97 64c5.523 0 10-4.477 10-10s-4.477-10-10-10-10 4.477-10 10 4.477 10 10 10zm0-4a6 6 0 1 1 0-12 6 6 0 0 1 0 12z"/>
    </g>
</svg>
