<svg xmlns="http://www.w3.org/2000/svg" width="117" height="40" viewBox="0 0 117 40">
    <g fill="#989DA2" fill-rule="evenodd">
        <path d="M96.457 25.557H93.94l-3.006 2.828v-2.828h-2.128v7.791h2.128v-3.22l3.056 3.22h2.567l-3.952-4.178zM28.94 27.662h-3.072v-3.456h3.073c1.553 0 2.263.691 2.263 1.728s-.71 1.728-2.263 1.728m.067-5.31h-5.37v10.996h2.23v-3.833h3.14c2.668 0 4.424-1.272 4.424-3.581s-1.756-3.581-4.424-3.581M38.464 31.714c-1.25 0-2.415-.832-2.415-2.261 0-1.43 1.165-2.262 2.415-2.262s2.414.832 2.414 2.262c0 1.429-1.165 2.261-2.414 2.261m0-6.377c-2.297 0-4.576 1.383-4.576 4.116 0 2.733 2.28 4.115 4.576 4.115s4.576-1.382 4.576-4.115c0-2.733-2.28-4.116-4.576-4.116M48.472 31.714c-1.284 0-2.23-.863-2.23-2.261 0-1.383.98-2.262 2.23-2.262.76 0 1.418.33 1.941 1.068l1.824-.974c-.608-1.21-1.925-1.948-3.749-1.948-2.38 0-4.407 1.634-4.407 4.116 0 2.481 1.925 4.115 4.407 4.115 1.79 0 2.99-.754 3.834-2.09l-1.757-.894c-.506.66-1.047 1.13-2.093 1.13M71.125 29.971c-.101 1.194-.355 1.46-.794 1.46-.3 0-.44-.03-.646-.08l.01 2.016s.265.075.755.075c1.806 0 2.482-1.083 2.65-3.393l.203-2.717h2.398v6h2.128v-7.775h-6.35l-.354 4.414zM62.76 28.416c.304-.88 1.148-1.57 2.263-1.57 1.182 0 1.975.596 2.178 1.57H62.76zm2.33-3.079c-2.431 0-4.407 1.65-4.407 4.116 0 2.466 1.976 4.115 4.306 4.115 1.84 0 3.006-.644 3.85-1.98l-1.689-.784c-.523.612-.996 1.068-2.127 1.068-1.25 0-2.162-.754-2.297-1.948h6.45v-.691c0-2.278-1.688-3.896-4.086-3.896zM81.097 28.416c.304-.88 1.148-1.57 2.262-1.57 1.182 0 1.976.596 2.179 1.57h-4.441zm2.33-3.079c-2.432 0-4.407 1.65-4.407 4.116 0 2.466 1.975 4.115 4.305 4.115 1.841 0 3.006-.644 3.85-1.98l-1.688-.784c-.523.612-.996 1.068-2.128 1.068-1.25 0-2.161-.754-2.296-1.948h6.45v-.691c0-2.278-1.688-3.896-4.086-3.896zM52.983 27.285h2.5v6.063h2.127v-6.063h2.5v-1.728h-7.127z"/>
        <path d="M100.782 31.715c-1.25 0-2.415-.833-2.415-2.262 0-1.43 1.165-2.262 2.415-2.262s2.415.832 2.415 2.262c0 1.429-1.166 2.262-2.415 2.262m0-6.378c-2.297 0-4.576 1.382-4.576 4.116 0 2.733 2.28 4.115 4.576 4.115s4.576-1.382 4.576-4.115c0-2.734-2.28-4.116-4.576-4.116M113.824 25.556l-2.31 5.456-2.309-5.456h-2.78v7.776h2.022V28.41l2.242 4.923h1.651l2.242-4.923v4.923h2.023v-7.776zM1.122 37.703c0-.069-.014-.637.364-1.045.544-.588 2.221-2.237 2.221-2.237L8.252 29.9l9.56 9.534H2.856c-1.158 0-1.758-.998-1.734-1.73zM19.187 40L8.645 29.508 24.116 14.11 9.96 0 1.978 7.946C-.149 10.063.002 12.149.002 15.113v21.942C-.028 38.87 1.448 40 2.758 40h16.43z"/>
    </g>
</svg>
