<svg class="b-img img-logo" xmlns="http://www.w3.org/2000/svg" viewBox="0 0 270 100" width="270" height="100"><rect width="100%" height="100%" fill="none"/><g class="currentLayer"><title>Layer 1</title><g fill="none"><path d="M19.5 68.875L43.5 93H7.25c-3.667-.163-5.5-1.747-5.5-4.75 0-.62.56-2.157 1.14-2.747L19.5 68.875z" fill="#FF4F11"/><path d="M1.874 88.527c0-1.164.454-2.298 1.194-3.082l.004-.005 2.534-2.528a707.885 707.885 0 0 1 4.41-4.426c2.143-2.138 5.052-5.029 9.454-9.405l.012-.013a118692.939 118692.939 0 0 0 4.375-4.35C30.983 57.631 41.127 47.536 56 32.711L23.318 0 4.816 18.531C-.714 24.063.034 27.683.034 35.114v50.842A6.977 6.977 0 0 0 4.583 92.5c-1.59-.653-2.71-2.146-2.71-3.973z" fill="#7a929b"/><g fill="#000"><path d="M207.293 59.782h-5.466l-6.576 6.671v-6.671h-4.634v18.344h4.634v-7.583l6.655 7.583h5.625l-8.635-9.807zm-147.91-7.504H47.658v25.888h4.873v-9.053h6.852c5.823 0 9.666-2.978 9.666-8.417 0-5.44-3.843-8.418-9.666-8.418zm-.118 12.468H52.53v-8.14h6.694c3.407 0 4.952 1.628 4.952 4.05 0 2.462-1.545 4.09-4.912 4.09zm20.796-5.48c-5.03 0-9.982 3.256-9.982 9.688 0 6.433 4.99 9.689 9.982 9.689 5.03 0 9.982-3.256 9.982-9.689 0-6.432-4.991-9.688-9.982-9.688zm0 15.009c-2.733 0-5.27-1.946-5.27-5.32 0-3.376 2.537-5.321 5.27-5.321s5.268 1.945 5.268 5.32-2.575 5.321-5.268 5.321zm21.826 0c-2.813 0-4.872-2.025-4.872-5.32 0-3.256 2.139-5.321 4.872-5.321 1.663 0 3.09.794 4.238 2.501l4-2.303c-1.346-2.858-4.198-4.566-8.2-4.566-5.188 0-9.624 3.852-9.624 9.688 0 5.837 4.199 9.689 9.625 9.689 3.922 0 6.536-1.787 8.358-4.924l-3.842-2.104c-1.07 1.548-2.258 2.66-4.555 2.66zm50.109-4.09c-.238 2.82-.713 3.455-1.664 3.455-.436 0-.832-.16-1.307-.358l-1.347 4.527c1.03.437 1.743.595 2.812.595 3.96 0 5.427-2.54 5.784-7.98l.435-6.393h5.269v14.135h4.634V59.782h-13.864l-.752 10.403zM138.17 59.266c-5.308 0-9.626 3.891-9.626 9.688 0 5.797 4.318 9.689 9.388 9.689 4 0 6.576-1.51 8.398-4.646l-3.684-1.866c-1.15 1.43-2.178 2.501-4.634 2.501-2.734 0-4.714-1.786-5.031-4.566h14.102v-1.628c.04-5.36-3.684-9.172-8.913-9.172zm-5.07 7.266c.673-2.064 2.495-3.692 4.95-3.692 2.576 0 4.319 1.39 4.755 3.692H133.1zm45.75-7.266c-5.307 0-9.624 3.891-9.624 9.688 0 5.797 4.317 9.689 9.388 9.689 4 0 6.575-1.51 8.397-4.646l-3.684-1.866c-1.148 1.43-2.178 2.501-4.634 2.501-2.733 0-4.714-1.786-5.03-4.566h14.1v-1.628c0-5.36-3.683-9.172-8.912-9.172zm-5.07 7.266c.674-2.064 2.496-3.692 4.952-3.692 2.575 0 4.318 1.39 4.754 3.692h-9.705zm-62.03-2.66h5.467v14.254h4.634V63.872h5.466v-4.09H111.75z"/><path d="M216.76 59.266c-5.03 0-9.982 3.256-9.982 9.688 0 6.433 4.992 9.689 9.983 9.689 4.99 0 9.982-3.256 9.982-9.689 0-6.432-4.991-9.688-9.982-9.688zm0 15.009c-2.733 0-5.268-1.946-5.268-5.32 0-3.376 2.535-5.321 5.269-5.321 2.733 0 5.268 1.945 5.268 5.32s-2.535 5.321-5.268 5.321zm28.48-14.493l-5.07 12.865-5.03-12.865h-6.06v18.305h4.397V66.493l4.912 11.594h3.604l4.872-11.594v11.594h4.437V59.782z"/></g></g></g></svg>