<svg xmlns="http://www.w3.org/2000/svg" width="64" height="64" viewBox="0 0 64 64">
    <g fill="#FFF" fill-rule="nonzero">
        <path d="M30.667 2.667h2.667v60.64h-2.667z"/>
        <path d="M32 2.667c16.187 0 29.333 13.146 29.333 29.333 0 16.187-13.146 29.333-29.333 29.333C15.813 61.333 2.667 48.187 2.667 32 2.667 15.813 15.813 2.667 32 2.667zM32 0C14.32 0 0 14.32 0 32s14.32 32 32 32 32-14.32 32-32S49.68 0 32 0z"/>
        <path d="M32 2.667c8.667 0 16 13.44 16 29.333 0 15.893-7.333 29.333-16 29.333S16 47.893 16 32c0-15.893 7.333-29.333 16-29.333zM32 0C21.68 0 13.333 14.32 13.333 32S21.68 64 32 64c10.32 0 18.667-14.32 18.667-32S42.32 0 32 0z"/>
        <path d="M5.04 44.133h53.893V46.8H5.04zM5.04 17.2h53.893v2.667H5.04zM1.68 30.667h60.64v2.667H1.68z"/>
    </g>
</svg>
